<svg xmlns="http://www.w3.org/2000/svg" width="28" height="33" viewBox="0 0 28 33">
    <g fill="none" fill-rule="evenodd">
        <g>
            <g>
                <g>
                    <g>
                        <g>
                            <path d="M0 0H28V33H0z" transform="translate(-398.000000, -1782.000000) translate(340.000000, 1160.000000) translate(0.000000, 78.000000) translate(0.000000, 544.000000) translate(58.000000, 0.000000)"/>
                            <path fill="#BCBCBC" d="M6 2h16c1.105 0 2 .895 2 2v20H4V4c0-1.105.895-2 2-2z" transform="translate(-398.000000, -1782.000000) translate(340.000000, 1160.000000) translate(0.000000, 78.000000) translate(0.000000, 544.000000) translate(58.000000, 0.000000)"/>
                            <path fill="#BCBCBC" d="M6 25h16c1.105 0 2 .895 2 2v3H4v-3c0-1.105.895-2 2-2z" transform="translate(-398.000000, -1782.000000) translate(340.000000, 1160.000000) translate(0.000000, 78.000000) translate(0.000000, 544.000000) translate(58.000000, 0.000000) translate(14.000000, 27.500000) scale(1, -1) translate(-14.000000, -27.500000)"/>
                            <path fill="#FFF" d="M11 5H17V6H11z" transform="translate(-398.000000, -1782.000000) translate(340.000000, 1160.000000) translate(0.000000, 78.000000) translate(0.000000, 544.000000) translate(58.000000, 0.000000)"/>
                        </g>
                    </g>
                </g>
            </g>
        </g>
    </g>
</svg>
