<svg xmlns="http://www.w3.org/2000/svg" width="24" height="22" viewBox="0 0 24 22">
    <g fill="#fff">
        <path d="M11.29 16.71c.095.091.207.162.33.21.242.107.518.107.76 0 .123-.048.235-.119.33-.21l3-3c.392-.392.392-1.028 0-1.42-.392-.392-1.028-.392-1.42 0L13 13.59V1c0-.552-.448-1-1-1s-1 .448-1 1v12.59l-1.29-1.3c-.392-.392-1.028-.392-1.42 0-.392.392-.392 1.028 0 1.42l3 3z"/>
        <path d="M23 12c-.552 0-1 .448-1 1v6c0 .552-.448 1-1 1H3c-.552 0-1-.448-1-1v-6c0-.552-.448-1-1-1s-1 .448-1 1v6c0 1.657 1.343 3 3 3h18c1.657 0 3-1.343 3-3v-6c0-.552-.448-1-1-1z"/>
    </g>
</svg>
